<svg width="81" height="77" viewBox="0 0 81 77" fill="none" xmlns="http://www.w3.org/2000/svg">
<g id="24 / basic / home">
<g id="icon" filter="url(#filter0_dd)">
<path fill-rule="evenodd" clip-rule="evenodd" d="M40.2478 20.1638L26.4947 33.9169H26.4979V56.8335H53.9979V33.9169H54.0008L40.2478 20.1638ZM18.5301 41.8815L21.9146 38.4969V56.8335C21.9146 59.3648 23.9666 61.4169 26.4979 61.4169H53.9979C56.5292 61.4169 58.5813 59.3648 58.5813 56.8335V38.4973L61.9654 41.8815L65.204 38.6429L43.4859 16.9248C41.6975 15.1364 38.798 15.1364 37.0096 16.9248L15.2915 38.6429L18.5301 41.8815ZM48.0462 35.0054L38.2083 44.8433L32.9538 39.5887L29.7129 42.8296L38.2083 51.3251L51.2871 38.2463L48.0462 35.0054Z" fill="#DE2E26"/>
</g>
</g>
<defs>
<filter id="filter0_dd" x="0.291504" y="0.583496" width="79.9125" height="75.8334" filterUnits="userSpaceOnUse" color-interpolation-filters="sRGB">
<feFlood flood-opacity="0" result="BackgroundImageFix"/>
<feColorMatrix in="SourceAlpha" type="matrix" values="0 0 0 0 0 0 0 0 0 0 0 0 0 0 0 0 0 0 127 0"/>
<feOffset/>
<feGaussianBlur stdDeviation="7.5"/>
<feColorMatrix type="matrix" values="0 0 0 0 1 0 0 0 0 0.616667 0 0 0 0 0.708667 0 0 0 0.6 0"/>
<feBlend mode="normal" in2="BackgroundImageFix" result="effect1_dropShadow"/>
<feColorMatrix in="SourceAlpha" type="matrix" values="0 0 0 0 0 0 0 0 0 0 0 0 0 0 0 0 0 0 127 0"/>
<feOffset/>
<feGaussianBlur stdDeviation="5"/>
<feColorMatrix type="matrix" values="0 0 0 0 1 0 0 0 0 0.820833 0 0 0 0 0.820833 0 0 0 0.25 0"/>
<feBlend mode="normal" in2="effect1_dropShadow" result="effect2_dropShadow"/>
<feBlend mode="normal" in="SourceGraphic" in2="effect2_dropShadow" result="shape"/>
</filter>
</defs>
</svg>
