<svg width="81" height="81" viewBox="0 0 81 81" fill="none" xmlns="http://www.w3.org/2000/svg">
<g id="24 / basic / settings" filter="url(#filter0_dd)">
<path id="icon" fill-rule="evenodd" clip-rule="evenodd" d="M55.754 60.8888L60.8351 55.8078L59.0456 49.3067L59.8252 47.4447L65.7087 44.1249V36.9396L59.8419 33.6059L59.0753 31.7472L60.8873 25.2427L55.8027 20.1655L49.301 21.9545L47.4432 21.1755L44.123 15.2915H36.9378L33.6041 21.1583L31.7458 21.9246L25.2424 20.1104L20.1657 25.1871L21.955 31.6899L21.176 33.5477L15.292 36.8679V44.0511L21.1535 47.3922L21.9207 49.2525L20.109 55.7559L25.1876 60.8345L31.6904 59.0452L33.5484 59.8242L36.8686 65.7058H44.052L47.3908 59.8442L49.2506 59.0772L55.754 60.8888ZM56.2043 44.2252L54.2065 48.9968L55.7083 54.4528L54.4057 55.7554L48.9612 54.2387L44.1875 56.2075L41.388 61.1225H39.5445L36.7681 56.2043L32.0018 54.2058L26.5429 55.7079L25.2425 54.4075L26.7592 48.9631L24.7905 44.1897L19.8753 41.388V39.5443L24.7958 36.7679L26.7943 32.0013L25.2923 26.5424L26.5899 25.2447L32.0344 26.7635L36.8097 24.794L39.605 19.8748H41.4466L44.223 24.7953L48.9896 26.7938L54.4496 25.2915L55.7533 26.5932L54.2369 32.0366L56.2061 36.8115L61.1253 39.6068V41.4484L56.2043 44.2252ZM40.5003 49.6665C35.4377 49.6665 31.3337 45.5625 31.3337 40.4998C31.3337 35.4372 35.4377 31.3332 40.5003 31.3332C45.5629 31.3332 49.667 35.4372 49.667 40.4998C49.667 45.5625 45.5629 49.6665 40.5003 49.6665ZM45.0837 40.4998C45.0837 43.0311 43.0316 45.0832 40.5003 45.0832C37.969 45.0832 35.917 43.0311 35.917 40.4998C35.917 37.9685 37.969 35.9165 40.5003 35.9165C43.0316 35.9165 45.0837 37.9685 45.0837 40.4998Z" fill="#DE2E26"/>
</g>
<defs>
<filter id="filter0_dd" x="-2" y="-2" width="85" height="85" filterUnits="userSpaceOnUse" color-interpolation-filters="sRGB">
<feFlood flood-opacity="0" result="BackgroundImageFix"/>
<feColorMatrix in="SourceAlpha" type="matrix" values="0 0 0 0 0 0 0 0 0 0 0 0 0 0 0 0 0 0 127 0"/>
<feOffset/>
<feGaussianBlur stdDeviation="7.5"/>
<feColorMatrix type="matrix" values="0 0 0 0 1 0 0 0 0 0.616667 0 0 0 0 0.708667 0 0 0 0.6 0"/>
<feBlend mode="normal" in2="BackgroundImageFix" result="effect1_dropShadow"/>
<feColorMatrix in="SourceAlpha" type="matrix" values="0 0 0 0 0 0 0 0 0 0 0 0 0 0 0 0 0 0 127 0"/>
<feOffset/>
<feGaussianBlur stdDeviation="5"/>
<feColorMatrix type="matrix" values="0 0 0 0 1 0 0 0 0 0.820833 0 0 0 0 0.820833 0 0 0 0.25 0"/>
<feBlend mode="normal" in2="effect1_dropShadow" result="effect2_dropShadow"/>
<feBlend mode="normal" in="SourceGraphic" in2="effect2_dropShadow" result="shape"/>
</filter>
</defs>
</svg>
