<svg width="250" height="41" viewBox="0 0 250 41" fill="none" xmlns="http://www.w3.org/2000/svg">
<path d="M215.939 2.54141C215.939 1.14364 215.089 0 214.043 0H210.316C209.27 0 208.42 1.0801 208.42 2.47788V4.57455C208.42 5.97232 209.27 7.05243 210.316 7.05243H214.043C215.089 7.05243 215.939 5.90879 215.939 4.51101V2.54141Z" fill="#E9510F"/>
<path d="M59.1659 20.8396C65.1805 20.8396 69.8222 23.6352 69.8222 29.9887C69.8222 36.3422 65.1805 39.1378 59.1659 39.1378H43.9331C42.9525 39.1378 42.168 38.3118 42.168 37.2953V12.1988C42.168 11.1187 42.9525 10.2927 43.9985 10.2927H66.0304C67.0111 10.2927 67.861 11.1187 67.861 12.1988V14.1048C67.861 15.1214 67.0764 16.0109 66.0304 16.0109H49.4901V20.9031H59.1659V20.8396ZM49.4901 26.5578V33.4831H59.1659C61.2579 33.4831 62.4347 32.3395 62.4347 29.9887C62.4347 27.7014 61.2579 26.4942 59.1659 26.4942H49.4901V26.5578Z" fill="#181F1A"/>
<path d="M89.1083 9.65747C99.1109 9.65747 104.864 13.9779 104.864 24.7153C104.864 35.4528 99.1109 39.7732 89.1083 39.7732C79.1057 39.7732 73.3525 35.4528 73.3525 24.7153C73.3525 13.9779 79.1057 9.65747 89.1083 9.65747ZM80.7401 24.7789C80.7401 31.0053 83.0936 34.3727 89.1083 34.3727C95.1229 34.3727 97.4765 30.9418 97.4765 24.7789C97.4765 18.5524 95.1229 15.185 89.1083 15.185C83.0936 15.1215 80.7401 18.5524 80.7401 24.7789Z" fill="#181F1A"/>
<path d="M110.029 12.1988C110.029 11.1187 110.813 10.2927 111.859 10.2927H130.753C131.799 10.2927 132.583 11.1187 132.583 12.1988V14.1048C132.583 15.1849 131.799 16.0109 130.753 16.0109H117.351V37.3588C117.351 38.3754 116.501 39.2013 115.52 39.2013H111.859C110.878 39.2013 110.029 38.3754 110.029 37.3588V12.1988Z" fill="#181F1A"/>
<path d="M162.069 12.1988V14.1048C162.069 15.1849 161.219 16.0109 160.238 16.0109H143.24V21.8562H157.884C158.865 21.8562 159.715 22.7457 159.715 23.7622V25.6683C159.715 26.6848 158.865 27.5743 157.884 27.5743H143.175V33.5467H160.173C161.153 33.5467 162.003 34.3726 162.003 35.3892V37.3588C162.003 38.3754 161.219 39.2648 160.173 39.2648H137.683C136.637 39.2648 135.853 38.3754 135.853 37.2953V12.1352C135.853 11.1187 136.702 10.2927 137.683 10.2927H160.238C161.219 10.2927 162.069 11.1187 162.069 12.1988Z" fill="#181F1A"/>
<path d="M182.139 39.2013C181.158 39.2013 180.112 38.3754 179.72 37.3588L172.855 17.5358V37.2317C172.855 38.3118 172.071 39.2013 171.025 39.2013H167.495C166.449 39.2013 165.664 38.3118 165.664 37.2317V12.2623C165.664 11.1822 166.449 10.2927 167.495 10.2927H175.471C176.517 10.2927 177.497 11.1822 177.824 12.1988L183.577 29.4169L189.33 12.1988C189.657 11.1822 190.638 10.2927 191.684 10.2927H199.66C200.641 10.2927 201.49 11.1822 201.49 12.2623V37.2953C201.49 38.3754 200.706 39.2648 199.66 39.2648H196.13C195.084 39.2648 194.299 38.3754 194.299 37.2953V17.5993L187.434 37.4223C187.042 38.4389 186.062 39.2648 185.016 39.2648H182.139V39.2013Z" fill="#181F1A"/>
<path d="M208.486 11.9449C208.486 10.8648 209.336 9.97534 210.316 9.97534H213.977C215.023 9.97534 215.873 10.8013 215.873 11.9449V37.6132C215.873 38.6933 215.023 39.5828 213.977 39.5828H210.316C209.336 39.5828 208.486 38.7569 208.486 37.6768V11.9449Z" fill="#181F1A"/>
<path d="M222.346 19.6957C222.346 13.4692 227.184 10.2925 232.937 10.2925H248.235C249.216 10.2925 250 11.1184 250 12.135V37.3585C250 38.3751 249.15 39.2011 248.17 39.2011H244.509C243.462 39.2011 242.678 38.3116 242.678 37.295V28.9719H235.683L230.976 37.3585C230.387 38.3751 229.341 39.2011 228.164 39.2011H223.261C222.411 39.2011 221.954 38.248 222.542 37.295L227.968 28.1459C224.961 26.8117 222.346 24.3338 222.346 19.6957ZM242.678 23.1266V16.0107H233.002C230.779 16.0107 229.733 17.2178 229.733 19.5686C229.733 21.9194 230.714 23.1266 233.002 23.1266H242.678Z" fill="#181F1A"/>
<path d="M29.6156 40.2358H2.94194C1.30753 40.2358 0 39.0286 0 37.5038V11.1366C0 9.61177 1.30753 8.34106 2.94194 8.34106H29.6156C31.25 8.34106 32.5575 9.61177 32.5575 11.1366V37.4403C32.5575 39.0286 31.25 40.2358 29.6156 40.2358ZM2.94194 11.1366L2.81119 37.5038H29.6156L29.681 11.1366H29.6156H2.94194Z" fill="#E9510F"/>
<path fill-rule="evenodd" clip-rule="evenodd" d="M16.288 34.9939H15.9611C15.765 34.9939 15.6342 34.9304 15.5035 34.8668C14.9804 34.6762 14.5882 34.2315 14.5228 33.7232C14.4574 33.469 14.5228 33.1514 14.6536 32.8972C15.5035 31.1818 16.7456 27.7509 15.5688 24.5741C15.3727 24.0658 15.1766 23.6211 14.9151 23.1128C14.4574 22.1597 13.9998 21.1432 13.869 19.936C13.6729 18.0299 14.2613 16.1239 14.7189 14.6626C14.9151 14.1543 15.3073 13.7731 15.8303 13.646C15.9611 13.5825 16.4187 13.554 16.5495 13.554C16.9227 13.554 17.3994 13.7095 17.7263 14.0272C18.1185 14.4084 18.2493 14.9167 18.1185 15.4885L18.0796 15.6072C17.6285 16.9827 17.0835 18.6447 17.4647 20.1266C17.5955 20.762 17.9224 21.5879 18.2493 22.2233C18.3229 22.3951 18.3999 22.5669 18.4772 22.7394L18.4773 22.7397C18.7431 23.3327 19.0126 23.9343 19.1645 24.5741C19.5568 26.0989 19.6222 27.8144 19.2953 29.5298C19.0338 31.0547 18.5108 32.6431 17.7916 34.1679C17.5955 34.6127 17.1379 34.9304 16.5495 34.9939H16.288ZM22.8821 34.9939H22.5552C22.3591 34.9939 22.2283 34.9304 22.0976 34.8668C21.5746 34.6762 21.1823 34.2315 21.1169 33.7232C21.0516 33.469 21.1169 33.1514 21.2477 32.8972C22.0976 31.1818 23.3397 27.7509 22.163 24.5741C21.9668 24.0658 21.7707 23.6211 21.5092 23.1128C21.0516 22.1597 20.5939 21.1432 20.4632 19.936C20.267 18.0299 20.8554 16.1239 21.3131 14.6626C21.5092 14.1543 21.9015 13.7731 22.4245 13.646C22.5552 13.5825 23.0129 13.554 23.1436 13.554C23.5168 13.554 23.9935 13.7095 24.3204 14.0272C24.7126 14.4084 24.8434 14.9167 24.7126 15.4885L24.6737 15.6072C24.2227 16.9827 23.6777 18.6447 24.0589 20.1266C24.1896 20.762 24.5165 21.5879 24.8434 22.2233C24.9171 22.3952 24.9941 22.5671 25.0715 22.7397C25.3372 23.3327 25.6068 23.9343 25.7587 24.5741C26.1509 26.0989 26.2163 27.8144 25.8894 29.5298C25.6279 31.0547 25.1049 32.6431 24.3858 34.1679C24.1896 34.6127 23.732 34.9304 23.1436 34.9939H22.8821ZM9.57786 34.9946H9.90475H10.1663C10.7546 34.9311 11.2123 34.6134 11.4084 34.1687C12.1275 32.6438 12.6506 31.0554 12.9121 29.5306C13.2389 27.8151 13.1736 26.0997 12.7813 24.5748C12.6294 23.9351 12.3598 23.3335 12.0941 22.7404L12.094 22.7401C12.0167 22.5676 11.9397 22.3958 11.866 22.224C11.5392 21.5887 11.2123 20.7627 11.0815 20.1273C10.7003 18.6454 11.2453 16.9834 11.6964 15.608L11.7353 15.4893C11.866 14.9174 11.7353 14.4092 11.343 14.0279C11.0161 13.7103 10.5394 13.5547 10.1663 13.5547C10.0355 13.5547 9.57786 13.5832 9.44711 13.6467C8.9241 13.7738 8.53184 14.155 8.33571 14.6633C7.87807 16.1246 7.28968 18.0307 7.48581 19.9367C7.61657 21.1439 8.0742 22.1605 8.53184 23.1135C8.79335 23.6218 8.98947 24.0665 9.1856 24.5748C10.3624 27.7516 9.12023 31.1825 8.27033 32.8979C8.13958 33.1521 8.0742 33.4698 8.13958 33.7239C8.20496 34.2322 8.59721 34.6769 9.12023 34.8676C9.25098 34.9311 9.38173 34.9946 9.57786 34.9946Z" fill="#E9510F"/>
</svg>
