<svg width="171" height="54" viewBox="0 0 171 54" fill="none" xmlns="http://www.w3.org/2000/svg">
<path d="M170.471 0H0V54H170.471V0Z" fill="white"/>
<path d="M166.732 4.61621H3.32129V38.9702H166.732V4.61621Z" fill="#DE2E26"/>
<path d="M98.3152 6.76318H5.39746V36.8229H98.3152V6.76318Z" fill="white"/>
<path d="M161.853 46.0562L162.787 43.9088L163.722 46.0562H161.853ZM159.049 48.6325H160.607L161.23 47.1295H164.24L164.967 48.6325H166.732L163.618 42.084H162.164L159.049 48.6325ZM146.799 48.6325H148.252V46.5928L149.291 45.6265L151.678 48.6325H153.651L150.433 44.7677L153.443 42.084H151.263L148.252 44.8751V42.084H146.799V48.6325ZM138.597 48.6325H140.051V42.084H138.597V48.6325ZM125.205 48.6325H126.658V44.1236L130.188 48.6325H131.745V42.084H130.292V46.5928L126.762 42.084H125.101V48.6325H125.205ZM112.227 48.6325H113.681V45.8414H116.899V48.6325H118.352V42.084H116.899V44.6602H113.681V42.084H112.227V48.6325ZM104.13 46.1636C103.818 47.1295 103.195 47.6666 102.157 47.6666C100.807 47.6666 99.873 46.7003 99.873 45.4117C99.873 44.0162 100.807 43.1573 102.157 43.1573C103.195 43.1573 103.922 43.6943 104.13 44.5532H105.79C105.479 42.8355 104.233 41.9766 102.157 41.9766C101.015 41.9766 100.184 42.1914 99.5614 42.8355C98.7309 43.4795 98.3157 44.3384 98.3157 45.4117C98.3157 47.4517 99.9766 48.9547 102.261 48.9547C104.233 48.9547 105.583 47.9884 105.894 46.2706H104.13V46.1636ZM86.2725 48.6325H91.9827V47.3443H87.7261V45.8414H91.4635V44.6602H87.7261V43.2647H91.9827V41.9766H86.2725V48.6325ZM76.3061 48.6325H77.7594V43.2647H79.9395V41.9766H74.022V43.2647H76.2021V48.6325H76.3061ZM57.9299 41.4399H58.9683L60.318 40.1514H58.4491L57.9299 41.4399ZM57.5147 46.0562L58.4491 43.9088L59.4871 46.0562H57.5147ZM54.7118 48.6325H56.269L56.8918 47.1295H59.9027L60.6292 48.6325H62.2904L59.1759 42.084H57.7223L54.7118 48.6325ZM41.9421 48.6325H43.3954V44.1236L46.9251 48.6325H48.4823V42.084H47.0291V46.5928L43.603 42.084H41.9421V48.6325ZM30.8333 45.4117V43.3721H32.5982C33.0135 43.3721 33.2211 43.3721 33.325 43.4795C33.7402 43.5869 33.9479 43.9088 33.9479 44.4458C33.9479 44.8751 33.7402 45.1973 33.4288 45.4117C33.2211 45.5191 33.0135 45.5191 32.5982 45.5191H30.8333V45.4117ZM29.3798 48.6325H30.8333V46.4854H33.0135C33.5326 46.4854 33.9479 46.4854 34.2593 46.378C35.0899 46.0562 35.609 45.3047 35.609 44.231C35.609 43.3721 35.1937 42.6206 34.5708 42.2984C34.1555 42.084 33.7402 41.9766 32.9097 41.9766H29.3798V48.6325ZM18.8941 43.1573C20.2438 43.1573 21.1781 44.1236 21.1781 45.4117C21.1781 46.7003 20.2438 47.6666 18.8941 47.6666C17.5445 47.6666 16.6101 46.7003 16.6101 45.4117C16.7139 44.0162 17.6483 43.1573 18.8941 43.1573ZM18.9979 41.8691C16.7139 41.8691 15.1566 43.2647 15.1566 45.3047C15.1566 47.4517 16.7139 48.8473 18.9979 48.8473C21.282 48.8473 22.8392 47.4517 22.8392 45.4117C22.8392 43.2647 21.282 41.8691 18.9979 41.8691ZM5.50149 48.6325H6.95494V43.2647H9.23898V41.9766H3.32129V43.2647H5.50149V48.6325Z" fill="#A5A5A5"/>
<path d="M153.133 13.312H155.521C156.766 13.312 157.805 13.5267 158.739 13.9562C159.569 14.3856 160.296 15.0297 160.711 15.7812C161.127 16.5327 161.334 17.3916 161.334 18.3578C161.334 19.4313 161.127 20.2902 160.607 21.149C160.089 21.9005 159.362 22.4373 158.531 22.8667C157.597 23.2961 156.663 23.4035 155.521 23.4035H153.133V13.312Z" fill="white"/>
<path d="M151.783 13.312H144.308V30.3816H151.783V13.312Z" fill="white"/>
<path d="M134.03 13.0972C138.494 13.4192 142.024 17.284 142.024 21.793C142.024 26.4093 138.494 30.1668 134.03 30.4889V13.0972Z" fill="white"/>
<path d="M132.68 30.4889C128.216 30.1668 124.686 26.302 124.686 21.793C124.686 17.1767 128.216 13.4192 132.68 13.0972V30.4889Z" fill="white"/>
<path d="M38.4118 30.3816H30.833L25.123 14.1709L25.4345 13.312H32.2865L38.4118 30.3816Z" fill="#DE2E26"/>
<path d="M15.4696 30.3818H7.99463L13.0818 15.9961L16.8193 26.6244L15.4696 30.3818Z" fill="#DE2E26"/>
<path d="M93.3331 30.3816H85.858L80.0442 14.1709L80.3558 13.312H87.2076L93.3331 30.3816Z" fill="#DE2E26"/>
<path d="M81.809 30.3818H74.23L79.3174 15.9961L83.1587 26.6244L81.809 30.3818Z" fill="#DE2E26"/>
<path d="M46.2008 30.8112C41.7362 30.4891 38.2065 26.517 38.2065 21.7933C38.2065 17.0696 41.7362 13.2048 46.2008 12.7754V30.8112Z" fill="#DE2E26"/>
<path d="M47.6531 12.7754C52.1172 13.0974 55.647 17.0696 55.647 21.7933C55.647 26.517 52.1172 30.3818 47.6531 30.8112V12.7754Z" fill="#DE2E26"/>
<path d="M64.7832 13.312H57.3081V30.3816H64.7832V13.312Z" fill="#DE2E26"/>
<path d="M66.1323 13.312H67.378C75.3723 13.312 74.749 22.1152 68.4164 22.4373L74.2302 30.3816H66.1323V13.312Z" fill="#DE2E26"/>
<path d="M117.21 13.312H109.735V30.3816H117.21V13.312Z" fill="white"/>
<path d="M108.283 13.312H103.715V18.0357H108.283V13.312Z" fill="white"/>
<path d="M123.232 13.312H118.664V18.0357H123.232V13.312Z" fill="white"/>
<path d="M26.8884 30.3816H22.0089L16.1951 14.1709L16.5065 13.312H23.4624L28.2381 26.6242L26.8884 30.3816Z" fill="#DE2E26"/>
</svg>
