<svg width="1251" height="202" viewBox="0 0 1251 202" fill="none" xmlns="http://www.w3.org/2000/svg">
<path d="M1080.56 12.7172C1080.56 5.72275 1076.3 0 1071.07 0H1052.42C1047.19 0 1042.93 5.40482 1042.93 12.3993V22.891C1042.93 29.8855 1047.19 35.2903 1052.42 35.2903H1071.07C1076.3 35.2903 1080.56 29.5676 1080.56 22.5731V12.7172Z" fill="white"/>
<path d="M296.066 104.282C326.163 104.282 349.39 118.271 349.39 150.064C349.39 181.857 326.163 195.846 296.066 195.846H219.841C214.934 195.846 211.008 191.713 211.008 186.626V61.0438C211.008 55.639 214.934 51.5059 220.168 51.5059H330.416C335.323 51.5059 339.576 55.639 339.576 61.0438V70.5817C339.576 75.6686 335.65 80.1196 330.416 80.1196H247.648V104.6H296.066V104.282ZM247.648 132.896V167.551H296.066C306.534 167.551 312.423 161.828 312.423 150.064C312.423 138.619 306.534 132.578 296.066 132.578H247.648V132.896Z" fill="white"/>
<path d="M445.898 48.3246C495.951 48.3246 524.739 69.9439 524.739 123.674C524.739 177.404 495.951 199.024 445.898 199.024C395.845 199.024 367.056 177.404 367.056 123.674C367.056 69.9439 395.845 48.3246 445.898 48.3246ZM404.023 123.992C404.023 155.149 415.8 172 445.898 172C475.995 172 487.772 154.831 487.772 123.992C487.772 92.8349 475.995 75.9846 445.898 75.9846C415.8 75.6667 404.023 92.8349 404.023 123.992Z" fill="white"/>
<path d="M550.584 61.0438C550.584 55.639 554.509 51.5059 559.744 51.5059H654.288C659.523 51.5059 663.448 55.639 663.448 61.0438V70.5817C663.448 75.9865 659.523 80.1196 654.288 80.1196H587.224V186.944C587.224 192.031 582.971 196.164 578.064 196.164H559.744C554.837 196.164 550.584 192.031 550.584 186.944V61.0438Z" fill="white"/>
<path d="M810.99 61.0438V70.5817C810.99 75.9865 806.738 80.1196 801.83 80.1196H716.773V109.369H790.053C794.96 109.369 799.213 113.82 799.213 118.907V128.445C799.213 133.532 794.96 137.983 790.053 137.983H716.446V167.868H801.503C806.41 167.868 810.663 172.002 810.663 177.088V186.944C810.663 192.031 806.738 196.482 801.503 196.482H688.966C683.731 196.482 679.806 192.031 679.806 186.626V60.7258C679.806 55.639 684.059 51.5059 688.966 51.5059H801.83C806.738 51.5059 810.99 55.639 810.99 61.0438Z" fill="white"/>
<path d="M911.423 196.164C906.516 196.164 901.281 192.031 899.319 186.944L864.969 87.75V186.308C864.969 191.713 861.043 196.164 855.809 196.164H838.143C832.908 196.164 828.983 191.713 828.983 186.308V61.3617C828.983 55.9569 832.908 51.5059 838.143 51.5059H878.054C883.289 51.5059 888.196 55.9569 889.831 61.0438L918.62 147.203L947.409 61.0438C949.045 55.9569 953.952 51.5059 959.186 51.5059H999.098C1004 51.5059 1008.26 55.9569 1008.26 61.3617V186.626C1008.26 192.031 1004.33 196.482 999.098 196.482H981.432C976.197 196.482 972.272 192.031 972.272 186.626V88.0679L937.922 187.262C935.959 192.349 931.052 196.482 925.817 196.482H911.423V196.164Z" fill="white"/>
<path d="M1043.26 59.7732C1043.26 54.3684 1047.52 49.9174 1052.42 49.9174H1070.74C1075.98 49.9174 1080.23 54.0505 1080.23 59.7732V188.217C1080.23 193.622 1075.98 198.073 1070.74 198.073H1052.42C1047.52 198.073 1043.26 193.94 1043.26 188.535V59.7732Z" fill="white"/>
<path d="M1112.62 98.5569C1112.62 67.3997 1136.83 51.5032 1165.62 51.5032H1242.17C1247.07 51.5032 1251 55.6363 1251 60.7232V186.942C1251 192.029 1246.75 196.162 1241.84 196.162H1223.52C1218.29 196.162 1214.36 191.711 1214.36 186.624V144.975H1179.36L1155.8 186.942C1152.86 192.029 1147.62 196.162 1141.73 196.162H1117.2C1112.94 196.162 1110.65 191.393 1113.6 186.624L1140.75 140.842C1125.7 134.165 1112.62 121.766 1112.62 98.5569ZM1214.36 115.725V80.1169H1165.94C1154.82 80.1169 1149.58 86.1576 1149.58 97.9211C1149.58 109.685 1154.49 115.725 1165.94 115.725H1214.36Z" fill="white"/>
<path d="M148.196 201.339H14.7215C6.54288 201.339 0 195.298 0 187.668V55.7265C0 48.0962 6.54288 41.7375 14.7215 41.7375H148.196C156.375 41.7375 162.918 48.0962 162.918 55.7265V187.35C162.918 195.298 156.375 201.339 148.196 201.339ZM14.7215 55.7265L14.0672 187.668H148.196L148.523 55.7265H148.196H14.7215Z" fill="white"/>
<path fill-rule="evenodd" clip-rule="evenodd" d="M81.5042 175.108H79.8685C78.8871 175.108 78.2328 174.79 77.5785 174.472C74.9613 173.519 72.9985 171.293 72.6713 168.75C72.3442 167.478 72.6713 165.888 73.3256 164.616C77.5785 156.032 83.7942 138.864 77.9057 122.968C76.9242 120.424 75.9428 118.199 74.6342 115.655C72.3442 110.886 70.0542 105.799 69.3999 99.7586C68.4185 90.2206 71.3628 80.6827 73.6528 73.3703C74.6342 70.8269 76.5971 68.9193 79.2142 68.2834C79.8685 67.9655 82.1585 67.8228 82.8128 67.8228C84.6802 67.8229 87.0657 68.6013 88.7014 70.191C90.6643 72.0986 91.3186 74.642 90.6643 77.5034L90.4696 78.0974C88.2125 84.9801 85.4852 93.2967 87.3928 100.712C88.0471 103.892 89.6828 108.025 91.3186 111.204C91.6872 112.064 92.0726 112.924 92.4595 113.788L92.4596 113.788L92.4597 113.788L92.4598 113.788C93.7895 116.756 95.1384 119.766 95.8986 122.968C97.8614 130.598 98.1886 139.182 96.5529 147.766C95.2443 155.396 92.6271 163.345 89.0285 170.975C88.0471 173.201 85.7571 174.79 82.8128 175.108H81.5042ZM114.502 175.108H112.866C111.885 175.108 111.23 174.79 110.576 174.472C107.959 173.519 105.996 171.293 105.669 168.75C105.342 167.478 105.669 165.888 106.323 164.616C110.576 156.032 116.792 138.864 110.903 122.968C109.922 120.424 108.94 118.199 107.632 115.655C105.342 110.886 103.052 105.799 102.397 99.7586C101.416 90.2206 104.36 80.6827 106.65 73.3703C107.632 70.8269 109.595 68.9193 112.212 68.2834C112.866 67.9655 115.156 67.8228 115.81 67.8228C117.678 67.8229 120.063 68.6013 121.699 70.191C123.662 72.0986 124.316 74.642 123.662 77.5034L123.467 78.0974C121.21 84.9801 118.483 93.2966 120.39 100.712C121.045 103.892 122.68 108.025 124.316 111.204C124.685 112.064 125.07 112.924 125.457 113.788C126.787 116.756 128.136 119.766 128.896 122.968C130.859 130.598 131.186 139.182 129.55 147.766C128.242 155.396 125.625 163.345 122.026 170.975C121.045 173.201 118.755 174.79 115.81 175.108H114.502ZM47.9264 175.113H49.5621H50.8707C53.815 174.795 56.105 173.206 57.0864 170.98C60.685 163.35 63.3022 155.401 64.6107 147.771C66.2465 139.187 65.9193 130.603 63.9565 122.973C63.1963 119.771 61.8474 116.761 60.5177 113.793C60.1306 112.929 59.7452 112.069 59.3764 111.209C57.7407 108.03 56.105 103.897 55.4507 100.717C53.5431 93.3017 56.2704 84.9851 58.5275 78.1024L58.7221 77.5084C59.3764 74.647 58.7221 72.1036 56.7593 70.196C55.1236 68.6063 52.738 67.8279 50.8707 67.8278C50.2164 67.8278 47.9264 67.9705 47.2721 68.2884C44.655 68.9243 42.6921 70.8319 41.7107 73.3753C39.4206 80.6877 36.4764 90.2256 37.4578 99.7636C38.1121 105.804 40.4021 110.891 42.6921 115.66C44.0007 118.204 44.9821 120.429 45.9635 122.973C51.8521 138.869 45.6364 156.037 41.3835 164.621C40.7292 165.893 40.4021 167.483 40.7292 168.755C41.0564 171.298 43.0192 173.524 45.6364 174.477C46.2907 174.795 46.945 175.113 47.9264 175.113Z" fill="white"/>
</svg>
