<svg width="82" height="16" viewBox="0 0 82 16" fill="none" xmlns="http://www.w3.org/2000/svg">
<path d="M23.4086 6.95708C22.7616 7.35317 21.9959 7.4852 20.3455 7.4852H19.6457V11.9346H17.4805V0.236816H20.3719C21.9166 0.236816 22.6956 0.382048 23.3558 0.778134C24.3724 1.39867 24.9401 2.50771 24.9401 3.8412C24.9401 5.17469 24.3592 6.37616 23.4086 6.95708ZM20.3719 2.30967H19.6457V5.41235H20.2795C22.2203 5.41235 22.7616 4.88423 22.7616 3.88081C22.7616 2.63974 22.0355 2.30967 20.3719 2.30967Z" fill="#DE2E26"/>
<path d="M32.9018 11.9355V10.8C32.0568 11.7506 31.225 12.1467 29.9972 12.1467C27.4358 12.1467 25.5874 10.2323 25.5874 7.59171C25.5874 4.91153 27.449 2.9707 30.05 2.9707C31.3175 2.9707 32.1888 3.37999 32.915 4.3438V3.16875H34.8426V11.9355H32.9018ZM30.2612 4.89832C28.7561 4.89832 27.6999 6.03377 27.6999 7.63132C27.6999 9.16286 28.7561 10.2059 30.3008 10.2059C31.8984 10.2059 32.849 9.07044 32.849 7.60492C32.8358 6.02057 31.7664 4.89832 30.2612 4.89832Z" fill="#DE2E26"/>
<path d="M39.0407 7.0636V11.9355H36.9414V3.16875H38.869V4.02693C39.4235 3.22156 39.8592 2.9707 40.7702 2.9707H40.9287V4.99074C39.6612 5.01715 39.0407 5.7037 39.0407 7.0636Z" fill="#DE2E26"/>
<path d="M49.1816 11.9355V10.8C48.3366 11.7506 47.5048 12.1467 46.2769 12.1467C43.7156 12.1467 41.8672 10.2323 41.8672 7.59171C41.8672 4.91153 43.7288 2.9707 46.3298 2.9707C47.5972 2.9707 48.4686 3.37999 49.1948 4.3438V3.16875H51.1224V11.9355H49.1816ZM46.541 4.89832C45.0359 4.89832 43.9796 6.03377 43.9796 7.63132C43.9796 9.16286 45.0359 10.2059 46.5806 10.2059C48.1782 10.2059 49.1288 9.07044 49.1288 7.60492C49.1156 6.02057 48.0461 4.89832 46.541 4.89832Z" fill="#DE2E26"/>
<path d="M56.9838 15.4342C54.8318 15.4342 53.1814 14.4044 52.4685 12.6484H54.8582C55.4787 13.335 56.0728 13.5858 57.0631 13.5858C58.6342 13.5858 59.4396 12.6616 59.5188 10.7868C58.7002 11.7506 57.8684 12.1467 56.6406 12.1467C54.1452 12.1467 52.3364 10.2059 52.3364 7.49929C52.3364 4.89832 54.1716 2.9707 56.6538 2.9707C57.9212 2.9707 58.8719 3.3932 59.5188 4.27779V3.16875H61.5256V10.2719C61.5256 14.0347 59.7036 15.4342 56.9838 15.4342ZM56.8914 4.89832C55.4259 4.89832 54.4489 5.96776 54.4489 7.59171C54.4489 9.18926 55.4127 10.2191 56.9178 10.2191C58.423 10.2191 59.4132 9.17606 59.4132 7.59171C59.4264 5.98096 58.3965 4.89832 56.8914 4.89832Z" fill="#DE2E26"/>
<path d="M67.4668 12.1331C64.9054 12.1331 62.8193 10.0734 62.8193 7.53845C62.8193 5.0167 64.9054 2.94385 67.4536 2.94385C70.0941 2.94385 72.1406 4.99029 72.1406 7.59126C72.1406 10.0866 70.0149 12.1331 67.4668 12.1331ZM67.4668 4.89787C66.0937 4.89787 64.9318 6.08613 64.9318 7.52525C64.9318 9.03038 66.054 10.2186 67.48 10.2186C68.8663 10.2186 70.0149 9.03038 70.0149 7.56486C70.0149 6.09934 68.8795 4.89787 67.4668 4.89787Z" fill="#DE2E26"/>
<path d="M79.0454 11.9355V7.64452C79.0454 5.30761 78.4116 4.88512 77.3686 4.88512C76.7085 4.88512 76.154 5.17559 75.8239 5.6905C75.5598 6.11299 75.4806 6.6279 75.4806 7.78976V11.9223H73.3813V3.16875H75.3222V4.01373C76.1011 3.27437 76.7877 2.9707 77.7911 2.9707C79.0058 2.9707 79.9564 3.4196 80.5241 4.23818C80.9994 4.92473 81.1578 5.67729 81.1578 7.24844V11.9487H79.0454V11.9355Z" fill="#DE2E26"/>
<path d="M10.1926 6.06033L8.74023 8.56887L10.483 11.5791L13.6649 6.06033L10.483 0.52832L8.75344 3.55178L10.1926 6.06033Z" fill="#DE2E26"/>
<path d="M4.93788 3.02346H7.82931L9.57209 0H3.1951L0 5.5188L3.47236 5.55841L4.93788 3.02346Z" fill="#DE2E26"/>
<path d="M4.93835 9.09597L3.51243 6.61383L0.0136719 6.57422L3.19557 12.093L9.57256 12.1062L7.82978 9.09597H4.93835Z" fill="#DE2E26"/>
</svg>
