<svg width="22" height="22" viewBox="0 0 22 22" fill="none" xmlns="http://www.w3.org/2000/svg">
<path d="M5.59492 8.75201C6.58587 11.9539 8.58359 14.7829 11.2695 16.7878L13.9522 14.8934C14.2936 14.6523 14.7136 14.639 15.058 14.8161C16.1568 15.4016 17.3692 15.8247 18.6695 16.0486C18.9454 16.0961 19.1911 16.2513 19.3526 16.48C19.5141 16.7087 19.5781 16.9921 19.5306 17.268L18.9036 20.9089C18.8561 21.1847 18.7009 21.4305 18.4722 21.5919C18.2436 21.7534 17.9601 21.8175 17.6842 21.7699C12.9941 20.9622 8.81694 18.3244 6.07169 14.4368C3.32644 10.5493 2.23796 5.73036 3.0457 1.04024C3.09321 0.764352 3.24838 0.518638 3.47706 0.357152C3.70574 0.195667 3.98921 0.131639 4.26509 0.179153L7.90594 0.806189C8.18183 0.853703 8.42754 1.00887 8.58903 1.23755C8.75051 1.46623 8.81454 1.74969 8.76703 2.02558C8.54309 3.32588 8.53615 4.61001 8.72039 5.84136C8.77211 6.22515 8.61902 6.61652 8.27759 6.85762L5.59492 8.75201Z" fill="#DE2E26"/>
</svg>
