<svg width="11" height="6" viewBox="0 0 11 6" fill="none" xmlns="http://www.w3.org/2000/svg">
<mask id="path-1-inside-1" fill="white">
<path fill-rule="evenodd" clip-rule="evenodd" d="M10.7812 1.22462L6.02812 5.78989C5.73645 6.07004 5.26355 6.07004 4.97188 5.78989L0.218756 1.22462C-0.0729189 0.944468 -0.0729189 0.490259 0.218756 0.210111C0.510431 -0.070037 0.98333 -0.070037 1.27501 0.210111L5.5 4.26813L9.72499 0.210111C10.0167 -0.070037 10.4896 -0.070037 10.7812 0.210111C11.0729 0.490259 11.0729 0.944468 10.7812 1.22462Z"/>
</mask>
<path fill-rule="evenodd" clip-rule="evenodd" d="M10.7812 1.22462L6.02812 5.78989C5.73645 6.07004 5.26355 6.07004 4.97188 5.78989L0.218756 1.22462C-0.0729189 0.944468 -0.0729189 0.490259 0.218756 0.210111C0.510431 -0.070037 0.98333 -0.070037 1.27501 0.210111L5.5 4.26813L9.72499 0.210111C10.0167 -0.070037 10.4896 -0.070037 10.7812 0.210111C11.0729 0.490259 11.0729 0.944468 10.7812 1.22462Z" fill="black"/>
<path d="M6.02812 5.78989L7.41355 7.23232L7.41355 7.23232L6.02812 5.78989ZM4.97188 5.78989L3.58645 7.23232V7.23232L4.97188 5.78989ZM0.218756 1.22462L-1.16667 2.66705L0.218756 1.22462ZM1.27501 0.210111L2.66043 -1.23232V-1.23232L1.27501 0.210111ZM5.5 4.26813L4.11458 5.71056L5.5 7.04123L6.88542 5.71056L5.5 4.26813ZM7.41355 7.23232L12.1667 2.66705L9.39582 -0.217813L4.6427 4.34746L7.41355 7.23232ZM3.58645 7.23232C4.65214 8.25589 6.34786 8.25589 7.41355 7.23232L4.6427 4.34746C5.12504 3.88418 5.87496 3.88418 6.3573 4.34746L3.58645 7.23232ZM-1.16667 2.66705L3.58645 7.23232L6.3573 4.34746L1.60418 -0.217813L-1.16667 2.66705ZM-1.16667 -1.23232C-2.27778 -0.16512 -2.27778 1.59985 -1.16667 2.66705L1.60418 -0.217813C2.13194 0.28909 2.13194 1.14564 1.60418 1.65254L-1.16667 -1.23232ZM2.66043 -1.23232C1.59474 -2.25589 -0.100975 -2.25589 -1.16667 -1.23232L1.60418 1.65254C1.12184 2.11582 0.371924 2.11582 -0.110418 1.65254L2.66043 -1.23232ZM6.88542 2.8257L2.66043 -1.23232L-0.110418 1.65254L4.11458 5.71056L6.88542 2.8257ZM8.33957 -1.23232L4.11458 2.8257L6.88542 5.71056L11.1104 1.65254L8.33957 -1.23232ZM12.1667 -1.23232C11.101 -2.25589 9.40526 -2.25589 8.33957 -1.23232L11.1104 1.65254C10.6281 2.11582 9.87816 2.11582 9.39582 1.65254L12.1667 -1.23232ZM12.1667 2.66705C13.2778 1.59985 13.2778 -0.16512 12.1667 -1.23232L9.39582 1.65254C8.86806 1.14564 8.86806 0.28909 9.39582 -0.217813L12.1667 2.66705Z" fill="black" mask="url(#path-1-inside-1)"/>
</svg>
